<?xml version="1.0" encoding="UTF-8"?>
<svg width="161px" height="81px" viewBox="0 0 161 81" version="1.1" xmlns="http://www.w3.org/2000/svg" xmlns:xlink="http://www.w3.org/1999/xlink">
    <!-- Generator: Sketch 46.2 (44496) - http://www.bohemiancoding.com/sketch -->
    <title>Page 1</title>
    <desc>Created with Sketch.</desc>
    <defs>
        <polygon id="path-1" points="34.7529875 47 0.00907083333 47 0.00907083333 0.0890305732 34.7529875 0.0890305732 34.7529875 47"></polygon>
    </defs>
    <g id="Page-1" stroke="none" stroke-width="1" fill="none" fill-rule="evenodd">
        <g id="Splash" transform="translate(-100.000000, -280.000000)">
            <g id="Page-1" transform="translate(100.000000, 280.000000)">
                <path d="M9.45359916,51.5563494 C9.45359916,52.6630489 9.67013641,53.707238 10.1032109,54.6924383 C10.5359916,55.6773451 11.1247849,56.529894 11.8713536,57.2509656 C12.6167471,57.9720371 13.4702623,58.5481313 14.4330745,58.9815959 C15.3947114,59.4135932 16.4286254,59.6295918 17.5359916,59.6295918 C18.5937041,59.6295918 19.6164533,59.4135932 20.603064,58.9815959 C21.5884995,58.5478378 22.4543547,57.9720371 23.2009234,57.2509656 C23.9463169,56.529894 24.5359916,55.6776386 24.9690661,54.6924383 C25.4021406,53.7078249 25.6183841,52.6630489 25.6183841,51.5563494 C25.6183841,50.4511172 25.4018468,49.4069282 24.9690661,48.420554 C24.5359916,47.4368211 23.9463169,46.5825113 23.2009234,45.8623202 C22.4543547,45.1409552 21.5884995,44.564274 20.603064,44.1316898 C19.6164533,43.6993991 18.5937041,43.48252 17.5359916,43.48252 C16.4286254,43.48252 15.3947114,43.7117251 14.4330745,44.1672004 C13.4702623,44.6250236 12.6164533,45.2251829 11.8713536,45.9703195 C11.1247849,46.7154561 10.5362854,47.5800376 10.1032109,48.5652379 C9.67013641,49.5510251 9.45359916,50.547084 9.45359916,51.5563494 M4.69095488,23.0119537 C5.31529906,22.9641171 5.91760756,23.0729968 6.49494229,23.3368321 C7.07227702,23.6009609 7.58879328,23.9493174 8.04654774,24.3813146 C8.50312697,24.8138989 8.85158447,25.3307108 9.09309549,25.9311635 C9.33313746,26.5327902 9.45389297,27.1452754 9.45389297,27.7689128 L9.45389297,36.0587408 C11.1371249,35.1938659 12.8817629,34.6292173 14.6860441,34.3650885 C16.4900315,34.1012532 18.2816789,34.1012532 20.0621616,34.3650885 C21.841469,34.6292173 23.5734732,35.1577683 25.2578804,35.9507415 C26.9411123,36.7431278 28.5050577,37.8134363 29.9485414,39.1584386 C31.6317733,40.8876016 32.8948583,42.7508833 33.7372088,44.7438816 C34.5783841,46.7389342 35,49.0092677 35,51.5560559 C35,53.9593342 34.5310808,56.2182221 33.5926548,58.3321326 C32.6548164,60.4469236 31.3917314,62.2967054 29.8039874,63.8823584 C28.2162434,65.467718 26.3637775,66.7179275 24.2474711,67.6303456 C22.1296957,68.5436442 19.8929276,69 17.5362854,69 C15.2269465,69 13.0136831,68.5313182 10.8970829,67.5945415 C8.77960126,66.6577648 6.91597062,65.3961097 5.30442812,63.8101632 C3.6920042,62.2245102 2.40541448,60.3747284 1.44348374,58.2599375 C0.480671563,56.1460269 0,53.9109106 0,51.5560559 L0,27.4088172 C0,26.8321361 0.144260231,26.2683679 0.432780693,25.7148714 C0.721594963,25.1631358 1.08239244,24.6824214 1.51576076,24.2733153 C1.94854145,23.8656766 2.44125918,23.5410917 2.99508919,23.3001476 C3.54745016,23.0597904 4.11362015,22.9641171 4.69095488,23.0119537" id="Fill-1" fill="#FFFFFF"></path>
                <path d="M43.1398,21 C44.7517,21 46.1305,21.6004019 47.2786,22.8009079 C48.4258,23.9999256 49,25.4001687 49,26.9998512 C49,28.600129 48.4258,29.9997767 47.2786,31.1993898 C46.1305,32.3995981 44.7517,33 43.1398,33 C41.3404,32.9377868 39.8671,32.3695334 38.7214,31.2916677 C37.573,30.215588 37,28.6930023 37,26.722422 C37.0609,25.1236326 37.6978,23.7692308 38.9077,22.6621933 C40.1164,21.5533699 41.5255,21 43.1398,21" id="Fill-3" fill="#FFFFFF"></path>
                <path d="M42.6045323,35 C43.8134705,35 44.8249905,35.4721182 45.6393763,36.4136292 C46.4526259,37.3557459 46.9059778,38.4962188 47,39.8347452 L47,66.1658605 C47,67.5043869 46.6043113,68.6200274 45.8140702,69.5124793 C45.0226928,70.4046283 43.9532256,70.9000648 42.6048163,71 C41.3947418,71 40.3721437,70.6032874 39.5350335,69.8101651 C38.6979232,69.0176485 38.185772,67.9017051 38,66.4626379 L38,39.5373621 C38.092886,38.2485006 38.5811766,37.1828276 39.4648719,36.339132 C40.347999,35.496345 41.3944578,35.0502704 42.6045323,35" id="Fill-5" fill="#FFFFFF"></path>
                <path d="M55.8539948,71 C54.509835,71 53.3897525,70.566338 52.4934433,69.6984084 C51.5974381,68.8310845 51.099421,67.6784885 51,66.239712 L51,52.4791211 C51.0489504,50.0991285 51.5600412,47.8557152 52.5308402,45.7479727 C53.5016392,43.6399273 54.7956324,41.8050405 56.4140361,40.2433124 C58.0312236,38.6812813 59.9238711,37.4423769 62.0892423,36.5241765 C64.2552216,35.607793 66.5571066,35.0993304 68.9967217,35 C70.3901359,35 71.5476153,35.4712137 72.4691598,36.4130354 C73.3897922,37.3557657 73.8996669,38.4956425 74,39.8341802 C74,41.1733235 73.526002,42.3016925 72.5810464,43.2183788 C71.6348747,44.1365793 70.4646256,44.6205121 69.0715154,44.668966 C67.9255896,44.668966 66.8556736,44.8806487 65.8602475,45.3009859 C64.8639092,45.7228372 63.9934433,46.305192 63.2467217,47.0495643 C62.5,47.7927252 61.9028659,48.6742824 61.4544073,49.6896935 C61.0062526,50.7069215 60.7824794,51.8092466 60.7824794,52.9996972 L60.7824794,66.5367946 C60.6821463,67.8268784 60.1965948,68.8925603 59.3261289,69.7353545 C58.454751,70.57936 57.2972716,71 55.8539948,71" id="Fill-7" fill="#FFFFFF"></path>
                <g id="Group-11" transform="translate(74.000000, 34.000000)">
                    <mask id="mask-2" fill="white">
                        <use xlink:href="#path-1"></use>
                    </mask>
                    <g id="Clip-10"></g>
                    <path d="M9.39315417,17.8822726 C9.39315417,19.1087631 9.60782083,20.2238904 10.0380292,21.2282535 C10.4682375,22.2329159 11.0518625,23.1031643 11.7932792,23.8386994 C12.5329458,24.5736357 13.3927792,25.1502089 14.3719042,25.5663236 C15.3501542,25.9836357 16.3654458,26.1907949 17.4166125,26.1907949 C18.5628625,26.1907949 19.6125708,25.9704637 20.5689458,25.5289032 C21.5232792,25.0879414 22.3594875,24.4880178 23.0761125,23.7273363 C23.7921542,22.9687503 24.3533208,22.0856293 24.7593208,21.0806675 C25.1647375,20.0763045 25.3680292,19.0108713 25.3680292,17.8819732 C25.3680292,16.7548713 25.1533625,15.6894382 24.7234458,14.6835783 C24.2932375,13.6792153 23.7206958,12.8086675 23.0043625,12.0731325 C22.2874458,11.3381962 21.4515292,10.7622217 20.4969042,10.3452089 C19.5408208,9.92999236 18.5144458,9.72043822 17.4163208,9.72043822 C16.2697792,9.72043822 15.2063625,9.94136815 14.2284042,10.3826293 C13.2489875,10.8235911 12.4014042,11.4121389 11.6850708,12.1470752 C10.9687375,12.8826102 10.4066958,13.7405847 10.0015708,14.7201006 C9.59527917,15.7023108 9.39315417,16.7551707 9.39315417,17.8822726 M17.4166125,0.0890305732 C19.7560708,0.0890305732 21.9765292,0.55483949 24.0791542,1.4858586 C26.1800292,2.4177758 28.0189875,3.69216433 29.5951542,5.3090242 C31.1707375,6.9264828 32.4249042,8.81426624 33.3556125,10.9714764 C34.2871958,13.1286866 34.7529875,15.4322854 34.7529875,17.882572 C34.7529875,20.3340561 34.3105292,22.6382535 33.4279458,24.794865 C32.5436125,26.9517758 31.3253208,28.8389605 29.7742375,30.4561197 C28.2216958,32.0735783 26.3824458,33.348865 24.2582375,34.2792854 C22.1322792,35.2112025 19.8523208,35.6767121 17.4169042,35.6767121 C14.4547375,35.6767121 11.7810292,35.0645146 9.39344583,33.8383236 L9.39344583,42.2941325 C9.39344583,43.568521 8.93844583,44.6704764 8.0322375,45.602693 C7.1248625,46.5331134 6.00194583,47.0001197 4.66552917,47.0001197 C3.47115417,47.0001197 2.4086125,46.5693363 1.4776125,45.7134573 C0.546320833,44.8554828 0.0560291667,43.7885529 0.00907083333,42.513865 L0.00907083333,17.882572 C0.00907083333,15.4813809 0.4748625,13.2023299 1.4058625,11.0442217 C2.33715417,8.88761019 3.59102917,7.00012611 5.16719583,5.38266752 C6.74307083,3.76520892 8.58115417,2.47824713 10.6831958,1.52268025 C12.7834875,0.56651465 15.0275708,0.0890305732 17.4166125,0.0890305732" id="Fill-9" fill="#FFFFFF" mask="url(#mask-2)"></path>
                </g>
                <path d="M117.1398,21 C118.7502,21 120.1308,21.6004019 121.2789,22.8006102 C122.4258,23.9999256 123,25.4004664 123,26.9998512 C123,28.600129 122.4258,29.9997767 121.2789,31.1993898 C120.1308,32.3995981 118.7502,33 117.1398,33 C115.3392,32.9377868 113.868,32.3695334 112.7211,31.2916677 C111.5727,30.215588 111,28.6930023 111,26.7221244 C111.0603,25.1233349 111.6984,23.7689331 112.9071,22.6618957 C114.1164,21.5536676 115.5252,21 117.1398,21" id="Fill-12" fill="#FFFFFF"></path>
                <path d="M116.604532,35 C117.813471,35 118.824706,35.4721182 119.63966,36.4136292 C120.452626,37.3557459 120.906262,38.4962188 121,39.8347452 L121,66.1658605 C121,67.5043869 120.604311,68.6200274 119.81407,69.5124793 C119.022693,70.4046283 117.952942,70.9000648 116.604532,71 C115.39389,71 114.372144,70.6032874 113.534465,69.8101651 C112.697355,69.0176485 112.18492,67.9017051 112,66.4626379 L112,39.5373621 C112.092318,38.2485006 112.580893,37.1828276 113.464588,36.339132 C114.347999,35.496345 115.394174,35.0502704 116.604532,35" id="Fill-14" fill="#FFFFFF"></path>
                <path d="M143.536285,34 C145.845037,34 148.057712,34.434866 150.175782,35.3015697 C152.292088,36.1697875 154.14426,37.3844446 155.732298,38.9461465 C157.319454,40.5081512 158.59341,42.3569374 159.556222,44.4879624 C160.518447,46.6208045 161,48.9256549 161,51.405239 L161,65.1649927 C161,66.4559633 160.554586,67.5706859 159.664932,68.5127946 C158.774397,69.4549033 157.680546,69.951547 156.381616,70 C155.082392,70 153.963861,69.5660425 153.025729,68.6984303 C152.087597,67.8314238 151.618972,66.7269974 151.618972,65.3884823 L151.618972,52.0003028 C151.618972,50.8604452 151.413305,49.7814566 151.005205,48.7639429 C150.595929,47.7485489 150.018594,46.8682178 149.272907,46.1238581 C148.526632,45.3798011 147.66107,44.7856458 146.675047,44.3386665 C145.688143,43.8919901 144.618972,43.6697118 143.463715,43.6697118 C142.404827,43.6697118 141.394418,43.8804825 140.432781,44.3020239 C139.469675,44.7235653 138.629087,45.2807752 137.907492,45.974865 C137.185897,46.6692576 136.607975,47.5123404 136.175194,48.5038106 C135.74212,49.4961894 135.525876,50.5376268 135.525876,51.6275173 L135.525876,65.164387 C135.525876,66.4550548 135.044323,67.5818907 134.082099,68.5488316 C133.11958,69.5163781 132.013389,69.9993943 130.762644,69.9993943 C129.511312,69.9993943 128.405121,69.5530207 127.443778,68.6608792 C126.480378,67.7678292 126,66.6779387 126,65.3878766 L126,51.9996972 C126.047597,49.5204159 126.516516,47.1904305 127.407051,45.0079241 C128.297293,42.8263261 129.523652,40.9172765 131.087597,39.2804724 C132.64978,37.6439711 134.490493,36.3548175 136.607681,35.412406 C138.724869,34.4724171 141.033914,34 143.536285,34" id="Fill-16" fill="#FFFFFF"></path>
                <path d="M113.84521,18.5363536 C113.973448,18.0929171 114.000587,17.0232964 113.99999,17.0008589 C113.956151,16.1656513 113.692219,15.4184224 113.244577,14.7559247 C112.651997,13.6641617 111.819045,12.7867361 111.338897,12.2966532 C110.191015,11.1248826 99.6587731,0 79.4144186,0 C59.1700642,0 48.5856326,11.3129445 47.6217578,12.2966532 C47.1419079,12.7867361 46.3349013,13.6638664 45.7420228,14.7559247 C45.2946799,15.4187176 45.0435714,16.1656513 45.00003,17.0008589 C44.9988371,17.0232964 45.0328352,18.0926219 45.160477,18.5363536 C45.3644654,19.3939988 45.7584254,20.1037333 46.3524968,20.6584718 C47.2552348,21.5046029 48.4147476,21.9518774 49.8316317,22 C50.9669881,22 51.954423,21.6197429 52.7975153,20.8660189 L52.79841,20.8680856 C52.79841,20.8680856 61.5863124,9.18610269 79.3741578,9.18610269 C97.1623014,9.18610269 105.962133,20.8680856 105.962133,20.8680856 L105.962133,20.8660189 C106.856819,21.6197429 107.917618,22 109.054167,22 C110.470157,21.9518774 111.690508,21.5046029 112.593246,20.6584718 C113.187019,20.1037333 113.64152,19.3937035 113.84521,18.5363536" id="Fill-18" fill="#FFFFFF"></path>
            </g>
        </g>
    </g>
</svg>